# xmcd
#
# Track frame offsets:
#	150
#	21982
#	38288
#	56860
#	70757
#	86382
#	109186
#	127133
#	141733
#	156976
#	170467
#	188055
#	201801
#	213719
#	225947
#	241999
#	260043
#	277762
#	293755
#	305767
#	318668
#
# Disc length: 4467 seconds
#
# Revision: 0
# Processed by: cddbd v1.4PL0 Copyright (c) Steve Scherf et al.
# Submitted via: MusicWizard 6.0.1
#
DISCID=3c117115
DTITLE=Various Artist - Cowboy Take Me Away - Dixie Chicks
DYEAR=1900
DGENRE=Country
TTITLE0=Dixie Chicks - Cowboy Take Me Away
TTITLE1=Adam Gregory - Only Know I Do
TTITLE2=Allan Jackson - Work In Progress
TTITLE3=Allan Jackson - Chasing That Neon Rainbow
TTITLE4=Allan Jackson - Little Bitty
TTITLE5=Andrew Strong - Same Old Me
TTITLE6=Anthony Smith - If It Ain't Country
TTITLE7=Blake Shelton - All Over Me
TTITLE8=Brad Paisley - I'm Gonna Miss Her (Fishin' Song)
TTITLE9=Brooks and Dunn - My Heart Is Lost To You
TTITLE10=Chely Wright - Shut Up and Drive
TTITLE11=Chris Cagle - My Love Goes On and On
TTITLE12=Donna Fargo - Happiest Girl
TTITLE13=Charlie Rich - The Most Beautiful Girl
TTITLE14=Cledus T. Judd - Breath
TTITLE15=Shannon Lawson - Goodbye On A Bad Day
TTITLE16=Allan Jackson - Chatahoochie
TTITLE17=Garth Brooks - American Honky Tonk Bar Assn.
TTITLE18=Garth Brooks - Calling Baton Rouge
TTITLE19=Garth Brooks - Why I Ain't Running
TTITLE20=George Strait - Living And Living Well
EXTD=
EXTT0=
EXTT1=
EXTT2=
EXTT3=
EXTT4=
EXTT5=
EXTT6=
EXTT7=
EXTT8=
EXTT9=
EXTT10=
EXTT11=
EXTT12=
EXTT13=
EXTT14=
EXTT15=
EXTT16=
EXTT17=
EXTT18=
EXTT19=
EXTT20=
PLAYORDER=
